<svg xmlns="http://www.w3.org/2000/svg" width="252" height="244.021" viewBox="0 0 252 244.021">
  <path d="M110,244.021c-4.036-.5-8.074-1.191-12-2.056V69H66V230.246a125.135,125.135,0,0,1-47.741-44.2A119.6,119.6,0,0,1,9.9,74.817,121.475,121.475,0,0,1,21.519,54.009,124.22,124.22,0,0,1,36.9,35.879,126.489,126.489,0,0,1,76.955,9.626a128.117,128.117,0,0,1,23.651-7.138,130.806,130.806,0,0,1,50.787,0,127.237,127.237,0,0,1,45.054,18.433A126.1,126.1,0,0,1,215.1,35.879a124.172,124.172,0,0,1,15.385,18.13A121.475,121.475,0,0,1,242.1,74.817a119.576,119.576,0,0,1,0,95.366,121.529,121.529,0,0,1-11.617,20.808A124.088,124.088,0,0,1,215.1,209.12a126.1,126.1,0,0,1-18.648,14.958c-3.361,2.207-6.875,4.281-10.447,6.166V69H154V241.964c-.869.192-1.747.375-2.606.547-3.089.614-6.249,1.121-9.392,1.508V69H110V244.02h0Z" fill="#ffc107"/>
</svg>
